<svg width="73" height="66" viewBox="0 0 73 66" fill="none"
    xmlns="http://www.w3.org/2000/svg">
    <path d="M34.5526 38.4142H55.0362C57.2443 38.4142 59.0375 36.621 59.0375 34.4128V9.52731C59.0375 4.76768 55.1793 0.909424 50.4196 0.909424H34.5526C32.4923 0.909424 30.8184 2.5834 30.8184 4.64368V34.6799C30.8184 36.7402 32.4923 38.4142 34.5526 38.4142Z" fill="#ffffff"/>
    <path d="M24.4849 0.909424H20.474C9.16634 0.909424 0 10.0805 0 21.3882V39.1009C0 50.4134 9.16634 59.5797 20.4788 59.5797H24.4849C26.5452 59.5797 28.2192 57.9057 28.2192 55.8455V4.64368C28.2192 2.5834 26.5452 0.909424 24.4849 0.909424Z" fill="#ffffff"/>
    <path d="M57.8738 48.415C58.6131 46.7124 59.0375 44.8715 59.0375 42.9162C59.0375 41.9146 58.2268 41.0991 57.2205 41.0991H34.5526C32.4923 41.0991 30.8184 42.7731 30.8184 44.8334V55.8406C30.8184 57.9009 32.4923 59.5749 34.5526 59.5749H39.2646C42.5171 59.5749 45.8222 58.7784 48.7743 57.3524C51.2352 56.3509 52.7518 55.2874 54.1873 55.8883C55.5131 56.4463 56.1188 57.5384 56.5766 58.9692C57.1299 61.3967 58.7752 63.5381 61.2218 64.5968C65.2851 66.3519 70.0495 64.468 71.8094 60.3999C73.5644 56.3366 71.6806 51.5722 67.6125 49.8124C64.9847 48.6773 62.0707 49.0684 59.8578 50.585C58.718 51.2908 58.0026 51.4959 57.5114 51.0858C57.0202 50.6756 57.3635 49.5549 57.8738 48.4103V48.415Z" fill="#ffffff"/>
</svg>
